<?xml version="1.0" encoding="utf-8"?>
<!-- Generator: Adobe Illustrator 26.4.1, SVG Export Plug-In . SVG Version: 6.00 Build 0)  -->
<svg version="1.1" id="Layer_1" xmlns="http://www.w3.org/2000/svg" xmlns:xlink="http://www.w3.org/1999/xlink" x="0px" y="0px"
	 viewBox="0 0 1080 1080" style="enable-background:new 0 0 1080 1080;" xml:space="preserve">
<style type="text/css">
	.st0{fill:#FFFFFF;}
	.st1{fill:#FF0A54;}
</style>
<g>
	<g>
		<path class="st0" d="M418.58,395.94v170.52h-56.84V395.94h-46.69V347.8h150.22v48.14H418.58z"/>
		<rect x="476.1" y="417.69" class="st1" width="55.89" height="148.77"/>
		<path class="st0" d="M611.14,325.76v145.58l55.1-53.65h71.92l-74.53,68.73l78.88,80.04h-73.66l-57.71-60.61v60.61h-56.31v-240.7
			H611.14z"/>
		<path class="st0" d="M296.73,564.85v183.46h-61.15V564.85h-50.23v-51.79h161.62v51.79H296.73z"/>
		<path class="st1" d="M418.1,588.25v90.17c0,19.76,9.56,29.64,28.7,29.64c19.13,0,28.7-9.88,28.7-29.64v-90.17h56.47v101.09
			c0,21.64-7.13,37.86-21.37,48.67c-14.25,10.81-35.52,16.22-63.8,16.22c-28.29,0-49.56-5.41-63.8-16.22
			c-14.25-10.81-21.37-27.04-21.37-48.67V588.25H418.1z"/>
		<path class="st0" d="M554.82,588.25h56.47v20.28c7.69-9.36,15.49-15.65,23.4-18.88c7.9-3.22,17.16-4.84,27.77-4.84
			c11.23,0,20.85,1.82,28.86,5.46c8,3.64,14.82,8.79,20.44,15.44c4.57,5.41,7.69,11.44,9.36,18.1c1.66,6.66,2.5,14.25,2.5,22.78
			v101.71h-56.47V667.5c0-7.9-0.58-14.3-1.72-19.19c-1.15-4.88-3.17-8.78-6.08-11.7c-2.5-2.5-5.3-4.26-8.42-5.3
			c-3.12-1.04-6.45-1.56-9.98-1.56c-9.57,0-16.9,2.86-22,8.58c-5.1,5.72-7.64,13.88-7.64,24.49v85.49h-56.47V588.25z"/>
		<path class="st0" d="M795.78,677.8c0,24.34,11.44,36.5,34.32,36.5c12.27,0,21.53-4.99,27.77-14.98h54.6
			c-11.03,36.61-38.58,54.91-82.68,54.91c-13.52,0-25.9-2.03-37.13-6.08c-11.23-4.06-20.86-9.83-28.86-17.32
			c-8.01-7.49-14.2-16.43-18.56-26.83c-4.37-10.4-6.55-22.04-6.55-34.94c0-13.31,2.08-25.32,6.24-36.04
			c4.16-10.71,10.09-19.81,17.78-27.3c7.69-7.49,17-13.26,27.92-17.32c10.92-4.06,23.24-6.08,36.97-6.08
			c13.52,0,25.69,2.03,36.5,6.08c10.81,4.06,19.97,9.93,27.46,17.63c7.49,7.7,13.21,17.11,17.16,28.24
			c3.95,11.13,5.93,23.66,5.93,37.6v5.93H795.78z M861.92,645.04c-1.87-7.9-5.72-14.25-11.54-19.03c-5.83-4.78-12.9-7.18-21.22-7.18
			c-8.74,0-15.86,2.29-21.37,6.86c-5.51,4.58-9,11.03-10.45,19.34H861.92z"/>
		<rect x="476.1" y="347.8" class="st0" width="55.89" height="48.27"/>
	</g>
	<polygon class="st1" points="808.48,357.97 843.33,325.76 839.87,373.09 886.78,380.25 847.63,407.06 871.27,448.2 825.9,434.31 
		808.48,478.45 791.05,434.31 745.68,448.2 769.33,407.06 730.17,380.25 777.08,373.09 773.63,325.76 	"/>
</g>
</svg>
